HIERARCHY
ROOT root
{
	OFFSET	0	13.1	24.9
	CHANNELS 6  Xposition Yposition Zposition Xrotation Yrotation Zrotation
	JOINT spine_1
	{
		OFFSET	0	9.99999	0
		CHANNELS 3  Xrotation Yrotation Zrotation
		JOINT spine_2
		{
			OFFSET	0	112	-10
			CHANNELS 3  Xrotation Yrotation Zrotation
			JOINT spine_3
			{
				OFFSET	0	206.5	19.3
				CHANNELS 3  Xrotation Yrotation Zrotation
				JOINT spine_4
				{
					OFFSET	0	110.4	14.6
					CHANNELS 3  Xrotation Yrotation Zrotation
					JOINT neck_1
					{
						OFFSET	0	71.8	-50.3
						CHANNELS 3  Xrotation Yrotation Zrotation
						JOINT neck_2
						{
							OFFSET	0	86.2	-25.8
							CHANNELS 3  Xrotation Yrotation Zrotation
							JOINT head_ee
							{
								OFFSET	0	179.8	-8.7
								CHANNELS 3  Xrotation Yrotation Zrotation
								End Site
								{
									OFFSET	1	0	0
								}
							}
						}
					}
					JOINT left_clavicle
					{
						OFFSET	-43.2	22.4	-70.8
						CHANNELS 3  Xrotation Yrotation Zrotation
						JOINT left_shoulder
						{
							OFFSET	-93.9	-5.79999	48.7
							CHANNELS 3  Xrotation Yrotation Zrotation
							JOINT left_elbow
							{
								OFFSET	-291.4	-30.8	15.2
								CHANNELS 3  Xrotation Yrotation Zrotation
								JOINT left_lowarm_twist
								{
									OFFSET	-110.7	-3.89999	13.6
									CHANNELS 3  Xrotation Yrotation Zrotation
									JOINT left_hand
									{
										OFFSET	-110.7	-3.89999	13.6
										CHANNELS 3  Xrotation Yrotation Zrotation
										JOINT left_ee
										{
											OFFSET	-80.8	-5.10001	12.1
											CHANNELS 3  Xrotation Yrotation Zrotation
											End Site
											{
												OFFSET	1	0	0
											}
										}
									}
								}
							}
						}
					}
					JOINT right_clavicle
					{
						OFFSET	43.2	22.4	-70.8
						CHANNELS 3  Xrotation Yrotation Zrotation
						JOINT right_shoulder
						{
							OFFSET	93.9	-5.79999	48.7
							CHANNELS 3  Xrotation Yrotation Zrotation
							JOINT right_elbow
							{
								OFFSET	291.4	-30.8	15.2
								CHANNELS 3  Xrotation Yrotation Zrotation
								JOINT right_lowarm_twist
								{
									OFFSET	110.7	-3.89999	13.6
									CHANNELS 3  Xrotation Yrotation Zrotation
									JOINT right_hand
									{
										OFFSET	110.7	-3.89999	13.6
										CHANNELS 3  Xrotation Yrotation Zrotation
										JOINT right_ee
										{
											OFFSET	80.8	-5.10001	12.1
											CHANNELS 3  Xrotation Yrotation Zrotation
											End Site
											{
												OFFSET	1	0	0
											}
										}
									}
								}
							}
						}
					}
				}
			}
		}
	}
	JOINT left_hip
	{
		OFFSET	-82.8	-127.5	0.300001
		CHANNELS 3  Xrotation Yrotation Zrotation
		JOINT left_knee
		{
			OFFSET	-28.2	-396.7	2.2
			CHANNELS 3  Xrotation Yrotation Zrotation
			JOINT left_ankle
			{
				OFFSET	-11.7	-411.3	35.4
				CHANNELS 3  Xrotation Yrotation Zrotation
				JOINT left_toes
				{
					OFFSET	0	-60	-88.6
					CHANNELS 3  Xrotation Yrotation Zrotation
					JOINT left_foot_ee
					{
						OFFSET	-22.5	-16.5	-42.2
						CHANNELS 3  Xrotation Yrotation Zrotation
						End Site
						{
							OFFSET	1	0	0
						}
					}
				}
			}
		}
	}
	JOINT right_hip
	{
		OFFSET	82.8	-127.5	0.300001
		CHANNELS 3  Xrotation Yrotation Zrotation
		JOINT right_knee
		{
			OFFSET	28.2	-396.7	2.2
			CHANNELS 3  Xrotation Yrotation Zrotation
			JOINT right_ankle
			{
				OFFSET	11.7	-411.3	35.4
				CHANNELS 3  Xrotation Yrotation Zrotation
				JOINT right_toes
				{
					OFFSET	0	-60	-88.6
					CHANNELS 3  Xrotation Yrotation Zrotation
					JOINT right_foot_ee
					{
						OFFSET	22.5	-16.5	-42.2
						CHANNELS 3  Xrotation Yrotation Zrotation
						End Site
						{
							OFFSET	1	0	0
						}
					}
				}
			}
		}
	}
}
MOTION
Frames: 11
Frame Time: 0.02
1047.23 747.868 -1522.9 -7.5954 47.3982 11.5515 2.44455 -0.169179 -0.74401 2.44484 -0.121495 -0.753267 2.44641 0.0069737 -0.762969 2.44561 -0.113607 -0.754496 -12.2766 4.48964 2.91446 -12.2779 6.65827 4.07599 -0.0 0.0 -0.0 5.3045 8.18933 10.378 -17.1129 -16.9655 52.896 1.8408 -42.3568 0.713253 59.982 -1.77232 -7.10627 2.87632 -8.32555 16.0904 -0.0 0.0 -0.0 11.2831 -0.527836 -22.2967 -32.5345 27.6021 -48.8982 0.672006 18.4123 -0.108916 0.294987 -0.0103002 0.0362657 1.51905 0.918518 -9.83008 0.0 0.0 0.0 22.2531 14.6421 -11.0979 -16.8187 0.319948 2.55191 8.83042 24.3151 -1.31322 40.1576 -0.0 -0.0 -0.0 0.0 -0.0 16.2506 33.4712 -6.14562 5.46383 0.263243 0.796598 43.5605 -23.316 5.43963 23.4953 -0.0 -0.0 0.0 0.0 0.0 
1044.48 743.454 -1521.74 -7.70936 48.1475 11.3013 2.48276 -0.294912 -0.842363 2.48312 -0.240714 -0.85942 2.4867 -0.093324 -0.8876 2.48568 -0.232327 -0.861725 -10.7827 3.33809 1.41891 -10.789 5.36083 2.24685 -0.0 0.0 -0.0 6.08827 8.37335 11.7889 -17.3266 -16.664 53.4462 1.63655 -39.0286 0.580026 59.4844 -1.72824 -7.06016 2.7574 -8.05457 15.377 -0.0 0.0 -0.0 11.2732 0.149224 -22.3235 -31.866 28.1498 -48.7961 0.70066 19.1412 -0.11814 0.819797 -0.0281628 0.100913 1.49306 0.622466 -9.77342 0.0 0.0 0.0 22.1875 16.4714 -10.2887 -17.1411 0.318718 2.60136 9.55551 23.2363 -1.41035 40.1546 -0.0 -0.0 -0.0 0.0 -0.0 15.6004 33.8253 -4.90432 5.90168 0.287614 0.859312 43.4243 -23.8554 5.44525 24.8441 -0.0 -0.0 0.0 0.0 0.0 
1042.02 745.134 -1525.0 -8.31824 49.2632 11.4634 2.38116 -0.354622 -0.731231 2.3814 -0.307374 -0.752313 2.38545 -0.17559 -0.793485 2.38469 -0.298699 -0.755799 -11.5795 2.01717 -0.807344 -11.5865 4.34441 -0.225386 -0.0 0.0 -0.0 6.60502 9.40732 12.695 -16.8219 -15.1153 54.2649 1.46075 -35.8878 0.473071 58.0861 -1.60653 -6.92859 2.68995 -7.87566 14.9842 -0.0 0.0 -0.0 11.1153 0.699029 -22.025 -31.35 28.5193 -48.2759 0.732472 19.9431 -0.128781 1.2434 -0.0421476 0.15321 1.43772 0.448013 -9.46841 0.0 0.0 0.0 22.1337 17.8064 -9.73229 -17.3673 0.317688 2.63606 7.96807 21.1366 -1.17085 39.4597 -0.0 -0.0 -0.0 0.0 -0.0 15.5744 34.0313 -4.27819 5.5761 0.269447 0.812697 42.5733 -24.5213 5.39173 26.2964 -0.0 -0.0 0.0 0.0 0.0 
1031.55 748.195 -1526.88 -9.42206 50.164 12.1233 2.57319 -0.40486 -0.69965 2.57339 -0.35952 -0.723993 2.57794 -0.234382 -0.773616 2.57728 -0.353616 -0.726894 -11.6073 1.21645 -2.03408 -11.6014 3.6262 -1.62691 -0.0 0.0 -0.0 7.09036 9.29229 13.5725 -16.3744 -14.0606 54.7899 1.30941 -32.9676 0.387476 57.1673 -1.52832 -6.84055 2.5194 -7.65682 13.8919 -0.0 0.0 -0.0 10.9348 1.12015 -21.6677 -31.0236 28.819 -48.581 0.738715 20.0995 -0.130918 1.53455 -0.0515348 0.189212 1.40206 0.289066 -9.29088 0.0 0.0 0.0 21.6644 19.2548 -9.17685 -17.3192 0.317919 2.62867 6.87059 19.6949 -1.00729 38.8752 -0.0 -0.0 -0.0 0.0 -0.0 15.6758 34.219 -3.27593 4.9023 0.232692 0.715907 42.2784 -25.225 5.3891 27.6481 -0.0 -0.0 0.0 0.0 0.0 
1026.84 741.553 -1528.64 -9.98309 51.3692 12.5896 2.74678 -0.30259 -0.527208 2.74689 -0.268429 -0.545394 2.74944 -0.175929 -0.581856 2.74907 -0.265613 -0.546771 -10.9831 0.521626 -2.83693 -10.963 2.85953 -2.60889 -0.0 0.0 -0.0 7.38881 9.47924 14.1034 -16.0508 -12.6173 55.2137 1.20311 -30.7931 0.331323 56.5069 -1.473 -6.77651 2.39662 -7.58744 13.0701 -0.0 0.0 -0.0 10.794 1.43104 -21.3865 -30.7943 28.9808 -48.1847 0.742657 20.1981 -0.132276 1.74338 -0.0581553 0.215064 1.37609 0.201062 -9.15051 0.0 0.0 0.0 21.9129 20.1299 -9.14876 -17.1096 0.31885 2.59652 5.94052 18.6705 -0.870218 38.4549 -0.0 -0.0 -0.0 0.0 -0.0 15.0792 34.3166 -2.14726 4.19994 0.195598 0.614572 42.076 -25.739 5.38869 28.7725 -0.0 -0.0 0.0 0.0 0.0 
1023.94 753.843 -1534.87 -11.2594 52.5402 13.5557 2.89116 -0.274723 -0.559241 2.8913 -0.238581 -0.575589 2.89368 -0.143083 -0.606423 2.89324 -0.237059 -0.576217 -10.5909 -0.649152 -4.75145 -10.5277 1.94571 -4.78107 -0.0 0.0 -0.0 7.48353 9.70176 14.2634 -16.5622 -11.3588 56.0767 1.12815 -29.1979 0.293848 56.6341 -1.4836 -6.78889 2.32385 -7.70186 12.517 -0.0 0.0 -0.0 10.7658 1.66833 -21.3389 -30.6039 29.2568 -48.6789 0.794069 21.4725 -0.150564 1.91527 -0.0635342 0.236361 1.22099 0.947771 -7.79806 0.0 0.0 0.0 22.3446 22.9145 -9.69283 -16.807 0.319988 2.55012 4.59301 14.8223 -0.668561 37.6402 -0.0 -0.0 -0.0 0.0 -0.0 14.9252 34.3518 -1.37924 2.77466 0.124165 0.407605 42.1737 -25.487 5.38871 29.8003 -0.0 -0.0 0.0 0.0 0.0 
1006.96 757.221 -1542.29 -10.7129 54.6147 12.998 2.25244 -0.178544 -0.179456 2.25244 -0.166763 -0.190454 2.253 -0.131613 -0.216242 2.25297 -0.164112 -0.192742 -10.6707 -0.246659 -3.45353 -10.6377 1.83368 -3.41495 -0.0 0.0 -0.0 7.53419 10.7953 14.2946 -16.867 -10.5114 56.9846 1.07331 -27.9983 0.267597 56.6937 -1.48857 -6.79468 2.27518 -7.81773 12.1306 -0.0 0.0 -0.0 10.5316 1.18271 -20.8206 -31.3076 28.9384 -48.5515 0.828764 22.3202 -0.163503 2.3513 -0.0768904 0.290455 1.05769 1.47498 -6.47964 0.0 0.0 0.0 22.5848 24.8853 -9.99991 -16.6223 0.320562 2.52179 3.0969 12.141 -0.450677 37.0683 -0.0 -0.0 -0.0 0.0 -0.0 16.2709 34.4775 -1.74066 0.171822 0.00711322 0.025408 42.225 -25.2233 5.38415 30.4718 -0.0 -0.0 0.0 0.0 0.0 
1011.03 745.766 -1552.16 -12.4372 56.0944 13.5754 2.34782 -0.132002 0.0128319 2.34781 -0.132551 0.00440631 2.3478 -0.131371 -0.0181847 2.34782 -0.132595 0.0027912 -10.6508 -1.66815 -4.21585 -10.6008 -0.339134 -4.52144 -0.0 0.0 -0.0 7.47192 10.3661 14.2074 -16.4453 -10.1204 56.7955 1.0205 -26.8171 0.243284 57.6565 -1.56978 -6.88758 2.21467 -7.51397 11.8446 -0.0 0.0 -0.0 10.6065 0.81156 -20.9589 -31.6615 28.7954 -48.2694 0.856456 22.9895 -0.17417 2.26038 -0.0741396 0.279167 0.874593 1.82605 -5.10097 0.0 0.0 0.0 22.6222 26.1194 -9.53975 -17.0962 0.318906 2.59447 2.09936 9.98012 -0.305751 37.805 -0.0 -0.0 -0.0 0.0 -0.0 15.2194 34.4507 -1.69932 -2.87478 -0.107644 -0.428009 42.8737 -24.9546 5.43363 32.2527 -0.0 -0.0 0.0 0.0 0.0 
1009.84 743.044 -1558.63 -12.4718 58.8947 13.5505 2.40926 -0.094203 0.143908 2.40927 -0.103169 0.137622 2.40902 -0.124931 0.11822 2.40901 -0.104693 0.136467 -10.6231 -2.67074 -4.24479 -10.575 -2.2097 -4.80708 -0.0 0.0 -0.0 7.41454 10.3061 14.1079 -16.7225 -9.65701 56.9751 0.95819 -25.3913 0.215866 58.3083 -1.62566 -6.9497 2.15998 -7.13311 11.6316 -0.0 0.0 -0.0 10.8031 0.520546 -21.3557 -31.6808 28.8686 -48.4493 0.879137 23.5328 -0.183127 2.26722 -0.0743471 0.280016 0.742187 2.09284 -4.09932 0.0 0.0 0.0 22.5883 26.827 -9.88148 -17.4368 0.317344 2.64671 1.43303 8.46918 -0.208977 38.3216 -0.0 -0.0 -0.0 0.0 -0.0 14.5152 34.4162 -1.68858 -5.00788 -0.173553 -0.748721 42.793 -25.2028 5.43506 33.5054 -0.0 -0.0 0.0 0.0 0.0 
1005.16 753.345 -1575.4 -12.0066 61.3451 12.8154 2.03581 -0.0708655 0.167521 2.03582 -0.0813817 0.162672 2.03559 -0.108641 0.145884 2.03557 -0.0842375 0.161211 -10.5421 -2.47826 0.0694739 -10.5502 -4.72082 -0.570352 -0.0 0.0 -0.0 7.20701 10.8024 13.7125 -16.6578 -9.48671 56.7746 0.918917 -24.4749 0.19931 59.3716 -1.7183 -7.04966 2.00914 -5.13234 11.4438 -0.0 0.0 -0.0 10.8425 -1.10033 -21.3346 -31.8583 28.1494 -49.5161 0.892851 23.8591 -0.188638 1.97298 -0.0653253 0.243514 0.603565 2.3069 -3.07806 0.0 0.0 0.0 22.4456 27.0715 -10.7984 -17.5848 0.316569 2.6694 1.74852 7.39801 -0.254814 39.4353 -0.0 -0.0 -0.0 0.0 -0.0 13.1879 34.4232 -1.0478 -6.98673 -0.223976 -1.0482 42.5649 -25.8294 5.43682 35.0762 -0.0 -0.0 0.0 0.0 0.0 
998.89 752.112 -1591.97 -11.5068 64.4474 11.9371 2.10891 -0.0536984 0.180114 2.10893 -0.0650507 0.176332 2.10873 -0.0947504 0.162318 2.1087 -0.0679263 0.175245 -10.449 -2.34424 3.08381 -10.435 -6.48255 2.39843 -0.0 0.0 -0.0 7.04357 11.3273 13.398 -17.8351 -8.91325 56.1601 0.859128 -23.0538 0.175215 60.0896 -1.78192 -7.11619 1.88552 -3.48676 11.2814 -0.0 0.0 -0.0 10.9142 -2.17121 -21.4039 -31.8001 27.585 -49.8171 0.893604 23.877 -0.188943 2.02286 -0.0668682 0.249699 0.477937 2.4627 -2.16868 0.0 0.0 0.0 20.82 27.2809 -10.6559 -18.3242 0.311818 2.78275 2.13599 6.55348 -0.311076 40.3221 -0.0 -0.0 -0.0 0.0 -0.0 12.766 34.1678 -1.81481 -8.77774 -0.260668 -1.32058 42.4034 -26.2506 5.43752 36.1881 -0.0 -0.0 0.0 0.0 0.0 
